<svg xmlns="http://www.w3.org/2000/svg" xmlns:xlink="http://www.w3.org/1999/xlink" version="1.1" width="1000" height="1000" viewBox="0 0 1000 1000" xml:space="preserve">
<desc>Created with Fabric.js 3.5.0</desc>
<defs>
</defs>
<rect x="0" y="0" width="100%" height="100%" fill="rgba(255,255,255,0)"/>
<g transform="matrix(1 0 0 1 528.4091 500)" id="164993">
<g style="" vector-effect="non-scaling-stroke">
		<g transform="matrix(1 0 0 1 -450 -450)" id="929869">
<rect style="stroke: none; stroke-width: 1; stroke-dasharray: none; stroke-linecap: butt; stroke-dashoffset: 0; stroke-linejoin: miter; stroke-miterlimit: 4; is-custom-font: none; font-file-url: none; fill: rgb(255,255,255); fill-opacity: 0; fill-rule: nonzero; opacity: 1;" x="-50" y="-50" rx="0" ry="0" width="100" height="100"/>
</g>
		<g transform="matrix(0.1359 0 0 -0.1359 -24.4874 2.0396)" id="152536">
<path style="stroke: none; stroke-width: 1; stroke-dasharray: none; stroke-linecap: butt; stroke-dashoffset: 0; stroke-linejoin: miter; stroke-miterlimit: 4; is-custom-font: none; font-file-url: none; fill: rgb(0,0,0); fill-rule: nonzero; opacity: 1;" vector-effect="non-scaling-stroke" transform=" translate(-4000.7461, -3999.1895)" d="M 3625 7589 c -688 -45 -1323 -211 -1845 -480 c -462 -239 -797 -545 -974 -889 c -106 -206 -142 -372 -133 -604 c 8 -193 41 -316 136 -503 c 323 -639 1253 -1155 2376 -1317 c 451 -66 1019 -73 1475 -20 c 845 98 1612 395 2104 815 l 110 93 l -71 -104 c -101 -148 -227 -285 -328 -356 c -68 -49 -288 -160 -490 -249 c -180 -80 -557 -194 -821 -249 c -406 -84 -686 -111 -1164 -111 c -478 0 -759 27 -1163 111 c -241 50 -603 155 -724 210 c -18 8 -50 21 -70 28 c -21 8 -96 41 -168 74 c -350 163 -597 328 -829 552 c -152 147 -265 293 -345 445 l -31 60 l 0 -1441 c 0 -1575 -2 -1517 58 -1694 c 86 -252 259 -494 501 -701 c 1335 -1145 4207 -1145 5542 0 c 297 254 491 563 544 870 c 22 126 22 3616 0 3742 c -82 471 -479 919 -1095 1238 c -530 273 -1153 434 -1865 481 c -172 11 -554 11 -730 -1 z m 995 -288 c 351 -43 610 -99 900 -193 c 814 -263 1360 -722 1477 -1242 c 26 -116 21 -308 -11 -431 c -168 -643 -985 -1170 -2109 -1360 c -796 -134 -1665 -76 -2382 160 c -486 159 -848 366 -1115 635 c -167 168 -290 368 -340 555 c -27 100 -37 294 -21 391 c 112 651 873 1197 1976 1419 c 385 77 591 95 1075 90 c 313 -2 416 -7 550 -24 z m 2489 -5035 c -160 -444 -553 -858 -1064 -1123 c -547 -283 -1225 -423 -2040 -423 c -1227 1 -2166 297 -2725 860 c -148 148 -237 270 -322 438 l -63 123 l -3 1095 l -2 1095 l 67 -72 c 88 -93 156 -157 218 -206 c 445 -350 1037 -587 1765 -707 c 569 -94 1317 -106 1915 -31 c 661 84 1250 277 1697 556 c 205 128 449 334 546 461 l 37 49 l 3 -1015 l 2 -1015 l -31 -85 z" stroke-linecap="round"/>
</g>
		<g transform="matrix(0.1359 0 0 -0.1359 -22.6461 -224.5641)" id="200164">
<path style="stroke: none; stroke-width: 1; stroke-dasharray: none; stroke-linecap: butt; stroke-dashoffset: 0; stroke-linejoin: miter; stroke-miterlimit: 4; is-custom-font: none; font-file-url: none; fill: rgb(0,0,0); fill-rule: nonzero; opacity: 1;" vector-effect="non-scaling-stroke" transform=" translate(-4014.3308, -5666.5855)" d="M 3650 7193 c -19 -1 -84 -8 -145 -13 c -1200 -112 -2152 -635 -2336 -1282 c -34 -118 -34 -337 -1 -451 c 128 -445 595 -829 1299 -1070 c 891 -306 2030 -323 2951 -46 c 747 225 1272 618 1421 1064 c 115 345 15 690 -292 996 c -429 431 -1220 727 -2131 799 c -116 9 -680 12 -766 3 z m 575 -183 c 298 -17 515 -48 770 -112 c 427 -107 799 -283 1040 -492 c 33 -28 96 -72 140 -96 c 91 -51 211 -164 240 -225 c 15 -31 19 -60 18 -130 c -1 -49 -2 -148 -2 -220 c 0 -144 -16 -246 -55 -347 c -107 -286 -387 -546 -796 -742 c -884 -423 -2189 -431 -3096 -18 c -440 200 -745 485 -848 792 c -155 465 131 933 763 1250 c 404 202 917 323 1451 343 c 168 7 202 6 375 -3 z" stroke-linecap="round"/>
</g>
		<g transform="matrix(0.1359 0 0 -0.1359 -22.9385 -225.1678)" id="915214">
<path style="stroke: none; stroke-width: 1; stroke-dasharray: none; stroke-linecap: butt; stroke-dashoffset: 0; stroke-linejoin: miter; stroke-miterlimit: 4; is-custom-font: none; font-file-url: none; fill: rgb(0,0,0); fill-rule: nonzero; opacity: 1;" vector-effect="non-scaling-stroke" transform=" translate(-4012.2192, -5671.0085)" d="M 3784 6879 c -867 -47 -1600 -348 -1917 -785 c -48 -67 -102 -183 -123 -264 c -22 -85 -22 -235 0 -320 c 134 -520 871 -935 1838 -1034 c 723 -74 1462 40 1997 308 c 402 202 648 465 706 754 c 17 83 16 111 -4 75 c -11 -23 -236 -226 -299 -271 c -24 -17 -61 -53 -84 -81 c -186 -229 -602 -432 -1084 -530 c -890 -181 -1892 -45 -2465 335 c -93 62 -254 221 -298 297 c -67 114 -85 179 -85 307 c 0 140 20 204 100 326 c 194 295 664 531 1257 633 c 237 41 399 53 762 56 c 603 5 873 -23 1531 -160 c 77 -16 -187 105 -361 164 c -315 109 -651 171 -1040 191 c -207 11 -223 11 -431 -1 z" stroke-linecap="round"/>
</g>
		<g transform="matrix(0.1359 0 0 -0.1359 -58.4359 -224.8537)" id="341600">
<path style="stroke: none; stroke-width: 1; stroke-dasharray: none; stroke-linecap: butt; stroke-dashoffset: 0; stroke-linejoin: miter; stroke-miterlimit: 4; is-custom-font: none; font-file-url: none; fill: rgb(0,0,0); fill-rule: nonzero; opacity: 1;" vector-effect="non-scaling-stroke" transform=" translate(-3751.0448, -5668.6696)" d="M 3845 6553 c -596 -27 -1155 -189 -1473 -428 c -62 -47 -202 -190 -202 -206 c 0 -6 -9 -22 -20 -37 c -30 -41 -60 -148 -60 -212 c 0 -403 637 -770 1500 -864 c 611 -67 1264 16 1734 221 c 103 45 117 58 35 32 c -126 -39 -346 -91 -489 -116 c -213 -37 -484 -43 -630 -13 c -189 38 -333 113 -455 235 c -129 130 -199 277 -231 488 c -32 208 -2 415 88 596 c 43 87 65 119 132 187 c 45 45 92 89 105 97 c 31 21 28 23 -34 20 z" stroke-linecap="round"/>
</g>
		<g transform="matrix(0.1359 0 0 -0.1359 110.1208 -242.8996)" id="975327">
<path style="stroke: none; stroke-width: 1; stroke-dasharray: none; stroke-linecap: butt; stroke-dashoffset: 0; stroke-linejoin: miter; stroke-miterlimit: 4; is-custom-font: none; font-file-url: none; fill: rgb(0,0,0); fill-rule: nonzero; opacity: 1;" vector-effect="non-scaling-stroke" transform=" translate(-4991.4603, -5801.4624)" d="M 4325 6553 c -214 -26 -362 -95 -475 -221 c -59 -66 -130 -204 -156 -307 c -28 -106 -25 -332 5 -445 c 71 -267 236 -434 507 -512 c 71 -21 99 -23 289 -23 c 171 1 234 5 340 23 c 431 75 849 223 1073 382 c 105 73 331 302 366 368 c 38 73 45 153 18 214 c -48 109 -343 275 -609 342 c -326 82 -790 156 -1108 176 c -159 10 -193 10 -250 3 z m 544 -213 c 119 -20 180 -33 321 -66 c 107 -25 100 -20 87 -62 c -18 -57 -13 -302 7 -406 c 20 -102 60 -234 88 -289 l 19 -38 l -143 -68 c -340 -164 -562 -221 -798 -208 c -206 12 -338 60 -448 161 c -135 125 -196 365 -147 575 c 44 184 192 320 421 386 c 173 49 364 54 593 15 z m 986 -156 c 106 -32 196 -131 211 -230 c 17 -117 -77 -250 -209 -293 c -220 -74 -456 59 -459 258 c -3 203 227 336 457 265 z" stroke-linecap="round"/>
</g>
		<g transform="matrix(0.1359 0 0 -0.1359 56.2302 -240.6338)" id="246315">
<path style="stroke: none; stroke-width: 1; stroke-dasharray: none; stroke-linecap: butt; stroke-dashoffset: 0; stroke-linejoin: miter; stroke-miterlimit: 4; is-custom-font: none; font-file-url: none; fill: rgb(0,0,0); fill-rule: nonzero; opacity: 1;" vector-effect="non-scaling-stroke" transform=" translate(-4594.9388, -5784.7641)" d="M 4459 6230 c -226 -27 -395 -123 -457 -260 c -33 -74 -41 -215 -18 -314 c 42 -180 153 -275 360 -311 c 236 -40 462 4 798 158 l 77 36 l -15 48 c -39 122 -65 280 -70 423 l -4 145 l -156 32 c -253 52 -361 61 -515 43 z" stroke-linecap="round"/>
</g>
		<g transform="matrix(0.1359 0 0 -0.1359 210.478 -259.4874)" id="283241">
<path style="stroke: none; stroke-width: 1; stroke-dasharray: none; stroke-linecap: butt; stroke-dashoffset: 0; stroke-linejoin: miter; stroke-miterlimit: 4; is-custom-font: none; font-file-url: none; fill: rgb(0,0,0); fill-rule: nonzero; opacity: 1;" vector-effect="non-scaling-stroke" transform=" translate(-5730.0578, -5923.4839)" d="M 5675 6071 c -140 -36 -192 -154 -106 -240 c 91 -91 281 -77 348 26 c 23 35 21 104 -5 141 c -40 56 -161 93 -237 73 z" stroke-linecap="round"/>
</g>
		<g transform="matrix(0.5829 0 0 0.5829 -24.452 282.2054)" id="927879">
<linearGradient id="SVGID_6" gradientUnits="userSpaceOnUse" gradientTransform="matrix(1 0 0 1 0 0)" x1="110.25" y1="213.3" x2="496.14" y2="436.09">
<stop offset="0%" style="stop-color:rgb(170,92,195);stop-opacity: 1"/>
<stop offset="100%" style="stop-color:rgb(0,164,220);stop-opacity: 1"/>
</linearGradient>
<path style="stroke: none; stroke-width: 1; stroke-dasharray: none; stroke-linecap: butt; stroke-dashoffset: 0; stroke-linejoin: miter; stroke-miterlimit: 4; is-custom-font: none; font-file-url: none; fill: url(#SVGID_6); fill-rule: nonzero; opacity: 1;" vector-effect="non-scaling-stroke" transform=" translate(-261.4091, -278.8463)" d="M 261.42 201.62 c -20.44 0 -86.24 119.29 -76.2 139.43 s 142.48 19.92 152.4 0 S 281.86 201.63 261.42 201.62 Z" stroke-linecap="round"/>
</g>
		<g transform="matrix(0.5829 0 0 0.5829 -24.4687 268.8798)" id="951520">
<linearGradient id="SVGID_7" gradientUnits="userSpaceOnUse" gradientTransform="matrix(1 0 0 1 0 0)" x1="110.25" y1="213.3" x2="496.14" y2="436.09">
<stop offset="0%" style="stop-color:rgb(170,92,195);stop-opacity: 1"/>
<stop offset="100%" style="stop-color:rgb(0,164,220);stop-opacity: 1"/>
</linearGradient>
<path style="stroke: none; stroke-width: 1; stroke-dasharray: none; stroke-linecap: butt; stroke-dashoffset: 0; stroke-linejoin: miter; stroke-miterlimit: 4; is-custom-font: none; font-file-url: none; fill: url(#SVGID_7); fill-rule: nonzero; opacity: 1;" vector-effect="non-scaling-stroke" transform=" translate(-261.39, -255.9964)" d="M 261.42 23.3 C 199.83 23.3 1.57 382.73 31.8 443.43 s 429.34 60 459.24 0 S 323 23.3 261.42 23.3 Z M 411.9 390.76 c -19.59 39.33 -281.08 39.77 -300.9 0 S 221.1 115.48 261.45 115.48 S 431.49 351.42 411.9 390.76 Z" stroke-linecap="round"/>
</g>
		<g transform="matrix(0.5829 0 0 0.5829 559.5588 285.1339)" id="248625">
<path style="stroke: none; stroke-width: 1; stroke-dasharray: none; stroke-linecap: butt; stroke-dashoffset: 0; stroke-linejoin: miter; stroke-miterlimit: 4; is-custom-font: none; font-file-url: none; fill: rgb(255,255,255); fill-rule: nonzero; opacity: 1;" vector-effect="non-scaling-stroke" transform=" translate(-1402.9316, -280.38)" d="M 1452.53 218.88 q 12.92 16.2 12.92 42.92 v 87.32 a 8.4 8.4 0 0 1 -2.67 6.38 a 8.8 8.8 0 0 1 -6.24 2.53 a 8.64 8.64 0 0 1 -8.91 -8.91 V 262.69 q 0 -19.31 -9.65 -31.33 t -29.85 -12 a 53.28 53.28 0 0 0 -42.77 21.83 a 36.24 36.24 0 0 0 -7.13 21.53 v 86.43 a 8.91 8.91 0 1 1 -17.82 0 V 216.06 a 8.91 8.91 0 1 1 17.82 0 V 232.4 q 8 -12.77 23 -21.24 A 61.84 61.84 0 0 1 1412 202.7 Q 1439.61 202.7 1452.53 218.88 Z" stroke-linecap="round"/>
</g>
</g>
</g>
</svg>