<svg height="536" viewBox="0 0 536 536" width="536" xmlns="http://www.w3.org/2000/svg"
  xmlns:xlink="http://www.w3.org/1999/xlink">
  <linearGradient id="a" gradientUnits="userSpaceOnUse" x1="110.25" x2="496.14" y1="213.3" y2="436.09">
    <stop offset="0" stop-color="#aa5cc3" />
    <stop offset="1" stop-color="#00a4dc" />
  </linearGradient>
  <path d="m261.42 201.62c-20.44 0-86.24 119.29-76.2 139.43s142.48 19.92 152.4 0-55.76-139.42-76.2-139.43z"
    fill="url(#a)" transform="matrix(1.15 0 0 1.15 -32.2915 -26.0075)" />
  <path
    d="m261.42 23.3c-61.59 0-259.85 359.43-229.62 420.13s429.34 60 459.24 0-168.04-420.13-229.62-420.13zm150.48 367.46c-19.59 39.33-281.08 39.77-300.9 0s110.1-275.28 150.45-275.28 170.04 235.94 150.45 275.28z"
    fill="url(#a)" transform="matrix(1.15 0 0 1.15 -32.2885 -26)" />
  <path
    d="m1452.53 218.88q12.92 16.2 12.92 42.92v87.32a8.4 8.4 0 0 1 -2.67 6.38 8.8 8.8 0 0 1 -6.24 2.53 8.64 8.64 0 0 1 -8.91-8.91v-86.43q0-19.31-9.65-31.33t-29.85-12a53.28 53.28 0 0 0 -42.77 21.83 36.24 36.24 0 0 0 -7.13 21.53v86.43a8.91 8.91 0 1 1 -17.82 0v-133.09a8.91 8.91 0 1 1 17.82 0v16.34q8-12.77 23-21.24a61.84 61.84 0 0 1 30.77-8.46q27.61 0 40.53 16.18z"
    fill="#fff" transform="matrix(1.15 0 0 1.15 -192.9195 -21.987)" />
</svg>
